<?xml version="1.0" standalone="no"?>
<!DOCTYPE svg PUBLIC "-//W3C//DTD SVG 20010904//EN"
 "http://www.w3.org/TR/2001/REC-SVG-20010904/DTD/svg10.dtd">
<svg version="1.0" xmlns="http://www.w3.org/2000/svg"
 width="263.000000pt" height="310.000000pt" viewBox="0 0 263.000000 310.000000"
 preserveAspectRatio="xMidYMid meet">

<g transform="translate(0.000000,310.000000) scale(0.100000,-0.100000)"
fill="#000000" stroke="none">
<path d="M480 3027 c-163 -62 -302 -249 -303 -407 0 -150 62 -246 342 -525
l207 -206 -38 -77 c-86 -175 -90 -338 -13 -500 35 -74 108 -183 144 -216 28
-25 26 -40 -6 -74 -432 -450 -447 -468 -463 -580 -17 -122 17 -211 117 -302
81 -74 148 -103 237 -103 106 0 183 41 301 159 33 33 120 118 193 189 l132
129 208 -205 c255 -253 296 -280 431 -280 51 0 76 6 135 34 86 41 129 82 183
173 73 123 75 213 6 332 -15 27 -122 142 -246 265 l-219 217 17 28 c10 15 30
43 45 62 142 188 185 350 141 535 -12 49 -33 109 -46 133 -14 25 -25 50 -25
56 0 6 60 72 132 146 267 274 341 370 385 499 34 99 28 170 -24 279 -64 136
-239 252 -378 252 -52 0 -128 -22 -213 -63 -76 -36 -181 -136 -362 -344 -63
-73 -123 -135 -134 -139 -14 -5 -37 12 -95 68 -327 320 -376 362 -484 418 -99
50 -111 54 -189 57 -53 2 -96 -2 -118 -10z m216 -239 c61 -40 96 -70 312 -277
94 -91 172 -172 172 -180 0 -7 -39 -56 -87 -109 -49 -52 -109 -118 -135 -146
l-46 -51 -69 66 c-37 36 -143 132 -235 213 -148 131 -171 156 -199 212 -27 54
-31 71 -25 110 8 62 41 117 95 159 40 31 51 35 106 35 52 0 69 -5 111 -32z
m1480 -1 c27 -19 63 -53 79 -76 26 -37 30 -51 30 -109 0 -62 -3 -71 -41 -127
-23 -33 -117 -132 -210 -220 -302 -287 -396 -384 -390 -401 7 -18 -5 -30 -174
-184 -63 -57 -119 -110 -123 -117 -4 -7 -15 -13 -24 -13 -23 0 -63 39 -56 56
3 8 -44 61 -116 131 -67 65 -121 123 -121 130 0 22 333 363 355 363 13 0 295
285 391 394 153 176 194 205 290 206 54 0 68 -4 110 -33z m-1179 -1184 c54
-60 117 -126 141 -147 23 -22 42 -47 42 -55 0 -9 -33 -47 -72 -87 -40 -39 -84
-86 -98 -104 l-26 -33 -32 34 c-18 19 -52 72 -75 118 -39 79 -42 91 -45 181
-3 83 -1 105 18 149 13 28 28 51 35 51 7 0 57 -48 112 -107z m844 -3 c14 -68
7 -147 -20 -224 -23 -66 -88 -173 -111 -181 -10 -4 -47 29 -112 97 -53 57 -97
106 -98 111 0 4 69 75 153 158 l152 150 12 -28 c7 -15 17 -53 24 -83z m-368
-436 c56 -58 103 -109 105 -113 3 -7 -14 -25 -178 -196 -69 -72 -192 -193
-273 -270 -81 -76 -180 -175 -219 -219 -123 -140 -174 -161 -275 -110 -86 42
-115 131 -72 217 27 52 772 797 798 797 6 0 57 -48 114 -106z m257 -281 c25
-32 229 -252 276 -298 17 -16 52 -56 77 -88 45 -56 47 -60 47 -124 0 -62 -2
-67 -38 -103 -49 -49 -95 -59 -169 -36 -46 15 -67 31 -146 113 -51 53 -139
145 -196 204 -57 59 -102 112 -99 119 6 20 203 239 215 240 6 0 21 -12 33 -27z"/>
</g>
</svg>
